<?xml version="1.0" standalone="no"?>
<!DOCTYPE svg PUBLIC "-//W3C//DTD SVG 20010904//EN"
 "http://www.w3.org/TR/2001/REC-SVG-20010904/DTD/svg10.dtd">
<svg version="1.0" xmlns="http://www.w3.org/2000/svg"
 width="1200.000000pt" height="1200.000000pt" viewBox="0 0 1200.000000 1200.000000"
 preserveAspectRatio="xMidYMid meet">
<metadata>
Created by potrace 1.11, written by Peter Selinger 2001-2013
</metadata>
<g transform="translate(0.000000,1200.000000) scale(0.100000,-0.100000)"
fill="#000000" stroke="none">
<path d="M1050 6635 l0 -1535 3635 0 3635 0 0 1535 0 1535 -3635 0 -3635 0 0
-1535z m1218 301 c117 -54 176 -148 176 -281 0 -133 -59 -227 -176 -281 -61
-28 -68 -29 -255 -32 l-193 -4 0 317 0 317 193 -4 c187 -3 194 -4 255 -32z
m1601 -161 c62 -107 114 -195 116 -195 1 0 53 88 116 195 l113 195 58 0 58 0
0 -315 0 -315 -65 0 -65 0 -2 188 -3 187 -89 -153 -89 -153 -36 3 c-34 3 -38
8 -121 146 l-85 142 -3 -180 -2 -180 -70 0 -70 0 0 315 0 315 63 0 62 -1 114
-194z m-1006 32 c83 -35 136 -111 144 -209 l6 -58 -182 0 c-99 0 -181 -3 -181
-8 0 -19 35 -55 66 -68 47 -20 103 -17 149 6 l40 20 35 -35 c41 -41 37 -57
-26 -89 -32 -17 -57 -21 -140 -21 -95 0 -104 2 -150 30 -161 100 -149 342 21
421 58 28 165 33 218 11z m367 -147 c35 -87 66 -157 70 -155 3 2 35 74 70 159
l64 156 63 0 c35 0 63 -3 63 -7 0 -5 -43 -113 -97 -240 l-97 -233 -72 0 -71 0
-97 233 c-53 127 -96 235 -96 240 0 4 31 7 68 7 l69 0 63 -160z m1555 141 c92
-42 107 -81 111 -293 l3 -168 -64 0 c-63 0 -65 1 -65 26 l0 25 -32 -23 c-28
-20 -45 -23 -119 -23 -78 0 -89 2 -122 28 -64 48 -71 141 -16 196 35 36 95 51
199 51 80 0 81 0 75 23 -15 48 -41 62 -113 62 -43 -1 -78 -7 -99 -18 l-33 -17
-24 48 -24 48 21 14 c68 42 231 54 302 21z m373 -6 c-3 -14 -4 -25 -3 -25 2 0
23 11 46 25 74 42 192 33 248 -18 51 -47 61 -88 61 -269 l0 -168 -70 0 -70 0
0 155 c0 152 -1 156 -25 180 -33 34 -104 37 -139 7 -37 -33 -46 -76 -46 -212
l0 -130 -70 0 -70 0 0 240 0 240 71 0 c71 0 71 0 67 -25z m787 6 c92 -42 107
-81 111 -293 l3 -168 -64 0 c-63 0 -65 1 -65 26 l0 25 -32 -23 c-28 -20 -45
-23 -119 -23 -78 0 -89 2 -122 28 -64 48 -71 141 -16 196 35 36 95 51 199 51
80 0 81 0 75 23 -15 48 -41 62 -113 62 -43 -1 -78 -7 -99 -18 l-33 -17 -24 48
-24 48 21 14 c68 42 231 54 302 21z m548 3 c18 -9 40 -24 51 -33 17 -15 18
-14 15 14 l-4 30 69 3 68 3 -4 -238 c-5 -262 -10 -288 -70 -350 -47 -49 -111
-66 -226 -61 -72 3 -110 10 -149 27 -29 13 -53 28 -53 33 0 8 37 87 45 96 2 2
22 -7 46 -19 58 -29 155 -37 200 -15 42 20 57 42 65 98 7 42 6 43 -12 26 -75
-66 -211 -62 -295 10 -72 62 -96 149 -67 246 15 50 80 118 128 133 54 17 156
15 193 -3z m640 3 c83 -35 136 -111 144 -209 l6 -58 -182 0 c-99 0 -181 -3
-181 -8 0 -19 35 -55 66 -68 47 -20 103 -17 149 6 l40 20 35 -35 c41 -41 37
-57 -26 -89 -32 -17 -57 -21 -140 -21 -95 0 -104 2 -150 30 -161 100 -149 342
21 421 58 28 165 33 218 11z m377 -9 c-4 -39 -1 -42 23 -20 27 26 69 42 108
42 l29 0 0 -64 0 -64 -41 0 c-94 -2 -119 -50 -119 -227 l0 -125 -70 0 -70 0 0
240 0 240 71 0 c67 0 70 -1 69 -22z"/>
<path d="M1970 6655 l0 -206 73 2 c179 5 257 66 257 204 0 138 -78 199 -257
204 l-73 2 0 -206z"/>
<path d="M2730 6709 c-36 -8 -80 -49 -80 -75 0 -11 21 -14 115 -14 63 0 115 2
115 5 0 4 -6 18 -14 33 -23 44 -76 64 -136 51z"/>
<path d="M4602 6524 c-39 -27 -26 -79 24 -92 67 -17 134 22 134 79 l0 29 -68
0 c-45 0 -75 -5 -90 -16z"/>
<path d="M5762 6524 c-39 -27 -26 -79 24 -92 67 -17 134 22 134 79 l0 29 -68
0 c-45 0 -75 -5 -90 -16z"/>
<path d="M6353 6690 c-38 -23 -53 -48 -53 -90 0 -60 43 -106 105 -111 56 -4
79 3 111 35 98 98 -41 241 -163 166z"/>
<path d="M7000 6709 c-36 -8 -80 -49 -80 -75 0 -11 21 -14 115 -14 63 0 115 2
115 5 0 4 -6 18 -14 33 -23 44 -76 64 -136 51z"/>
<path d="M8834 6008 c-17 -4 -39 -17 -50 -29 -18 -20 -19 -47 -24 -578 l-5
-556 -102 -203 -103 -204 0 -84 c0 -54 5 -95 14 -112 31 -60 -26 -57 1111 -57
1137 0 1080 -3 1111 57 9 17 14 58 14 112 l0 84 -105 212 -105 211 0 535 c0
476 -2 539 -16 563 -35 58 12 56 -884 56 -454 1 -839 -2 -856 -7z m1680 -84
c3 -9 6 -256 6 -549 l0 -533 90 -181 c50 -100 90 -184 90 -186 0 -3 -461 -5
-1025 -5 -564 0 -1025 2 -1025 5 0 3 38 82 85 175 l85 170 664 0 c715 0 703
-1 676 49 -11 21 -14 21 -670 21 l-660 0 0 518 c0 285 3 522 7 525 3 4 381 7
839 7 749 0 832 -2 838 -16z m216 -1581 c0 -32 -4 -65 -10 -73 -14 -22 -2076
-22 -2090 0 -6 8 -10 41 -10 73 l0 57 1055 0 1055 0 0 -57z"/>
<path d="M8934 5862 c-32 -21 -34 -53 -34 -452 l0 -401 25 -24 24 -25 730 0
730 0 20 26 c20 26 21 37 21 426 0 397 -2 429 -34 450 -6 4 -339 8 -741 8
-401 0 -735 -4 -741 -8z m1446 -447 l0 -385 -705 0 -705 0 0 385 0 385 705 0
705 0 0 -385z"/>
<path d="M9702 5665 c-32 -36 -33 -59 -4 -70 17 -6 58 19 76 48 8 12 8 22 0
35 -18 28 -39 25 -72 -13z"/>
<path d="M9603 5543 c-55 -20 -111 -78 -128 -136 -22 -73 -8 -138 40 -196 77
-90 214 -99 303 -18 29 27 28 45 -5 80 -22 22 -28 38 -28 72 0 34 6 50 28 72
15 16 27 36 27 44 0 24 -51 67 -99 84 -50 17 -82 17 -138 -2z m110 -63 c32 -1
37 -16 17 -55 -25 -49 -25 -98 0 -152 19 -42 19 -43 0 -53 -30 -16 -92 -11
-127 10 -52 31 -67 63 -64 138 2 60 95 132 149 116 8 -2 19 -4 25 -4z"/>
<path d="M10252 4881 c-8 -4 -12 -19 -10 -32 3 -23 6 -24 97 -24 77 0 96 3
104 17 8 12 7 21 -2 32 -10 12 -33 16 -95 16 -44 0 -87 -4 -94 -9z"/>
<path d="M8882 4741 c-8 -4 -12 -19 -10 -32 3 -22 7 -24 62 -24 66 0 92 19 67
49 -15 17 -96 22 -119 7z"/>
<path d="M9090 4735 c-6 -8 -10 -22 -8 -32 3 -15 13 -18 62 -18 66 0 92 19 67
49 -17 21 -104 22 -121 1z"/>
<path d="M9300 4735 c-6 -8 -10 -22 -8 -32 3 -15 13 -18 62 -18 66 0 92 19 67
49 -17 21 -104 22 -121 1z"/>
<path d="M9510 4735 c-6 -8 -10 -22 -8 -32 3 -15 15 -19 65 -21 55 -3 62 -1
68 18 4 12 1 27 -5 35 -17 20 -103 20 -120 0z"/>
<path d="M9721 4736 c-7 -8 -10 -24 -6 -36 5 -17 15 -20 66 -20 63 0 83 15 62
49 -14 22 -105 28 -122 7z"/>
<path d="M9929 4734 c-25 -30 1 -49 67 -49 49 0 59 3 62 18 6 31 -17 47 -68
47 -31 0 -52 -5 -61 -16z"/>
<path d="M10139 4734 c-25 -30 1 -49 67 -49 49 0 59 3 62 18 6 31 -17 47 -68
47 -31 0 -52 -5 -61 -16z"/>
<path d="M10350 4729 c-19 -35 4 -50 69 -47 50 3 56 5 59 27 5 31 -12 41 -70
41 -38 0 -50 -4 -58 -21z"/>
<path d="M8984 4596 c-15 -12 -17 -18 -8 -33 16 -26 127 -26 132 0 2 10 -2 24
-8 32 -16 19 -90 19 -116 1z"/>
<path d="M9196 4594 c-34 -34 -6 -56 66 -52 47 3 53 6 56 27 2 13 -2 28 -10
32 -22 15 -95 10 -112 -7z"/>
<path d="M9406 4594 c-19 -19 -20 -26 -4 -42 17 -17 529 -17 546 0 16 16 15
23 -4 42 -13 14 -52 16 -269 16 -217 0 -256 -2 -269 -16z"/>
<path d="M10042 4601 c-8 -4 -12 -19 -10 -32 3 -21 9 -24 56 -27 72 -4 100 18
66 52 -17 17 -90 22 -112 7z"/>
<path d="M10250 4595 c-6 -8 -10 -22 -8 -32 5 -26 116 -26 132 0 9 15 7 21 -8
33 -26 18 -100 18 -116 -1z"/>
</g>
</svg>
